<?xml version="1.0" encoding="UTF-8"?>
<svg id="Layer_2" data-name="Layer 2" xmlns="http://www.w3.org/2000/svg" viewBox="0 0 96.83 88">
  <defs>
    <style>
      .cls-1 {
        fill: #af4e4e;
      }
    </style>
  </defs>
  <g id="Layer_2-2" data-name="Layer 2">
    <g>
      <g>
        <g id="_4VDWEB" data-name="4VDWEB">
          <path class="cls-1" d="m86.4,41.08c.17-.28.11-.61-.15-.79-.68-.49-1.69-.34-2.2.34-1.01,1.36-.76,3.38.58,4.4,1.47,1.11,3.12,1.44,4.91,1.02,1.59-.37,2.8-1.3,3.66-2.69,1.23-1.98,1.75-4.13,1.51-6.44-.3-2.81-1.55-5.13-3.76-6.89-1.36-1.08-2.89-1.86-4.52-2.43-2.86-1.01-5.78-1.24-8.75-.69-2.95.54-5.57,1.77-7.87,3.69-1.25,1.04-2.31,2.25-3.21,3.61-1.62,2.42-2.84,5.02-3.66,7.82-.98,3.39-1.32,6.84-1.01,10.35.29,3.28,1.12,6.42,2.51,9.42,1.33,2.89,3.1,5.47,5.31,7.76,1.07,1.11,2.23,2.12,3.47,3.04.28.2.55.4.83.6.48.33.6.97.27,1.44-.33.47-.96.58-1.44.25-3.28-2.25-6.01-5.04-8.19-8.38-2.07-3.18-3.49-6.62-4.28-10.33-.71-3.38-.85-6.78-.4-10.21.41-3.12,1.29-6.11,2.63-8.96.63-1.33,1.35-2.6,2.16-3.82,1.68-2.56,3.84-4.61,6.51-6.13,1.76-1,3.64-1.7,5.63-2.1,2.09-.42,4.19-.5,6.3-.22,2.08.27,4.06.87,5.95,1.8.99.49,1.94,1.04,2.82,1.71,2.4,1.83,3.93,4.23,4.55,7.18.57,2.68.25,5.28-.92,7.76-.55,1.16-1.22,2.23-2.2,3.08-1.8,1.58-3.91,2.22-6.28,1.95-1.37-.16-2.62-.65-3.71-1.5-1.54-1.2-2.2-2.81-2.03-4.75.09-1.05.49-1.99,1.18-2.79,1.06-1.23,2.95-1.58,4.39-.82.75.39,1.29.96,1.48,1.8.22.99,0,1.87-.78,2.55-.66.59-1.72.62-2.44.1-.44-.31-.57-.89-.31-1.34.27-.48.83-.65,1.33-.43.04.02.08.03.12.05Z"/>
        </g>
        <g id="_4VDWEB-2" data-name="4VDWEB">
          <path class="cls-1" d="m10.23,36.91c-.15.29-.07.61.2.78.71.45,1.71.22,2.17-.48.92-1.42.54-3.42-.88-4.35-1.54-1.01-3.21-1.22-4.97-.69-1.56.48-2.71,1.49-3.47,2.93-1.09,2.06-1.47,4.24-1.07,6.53.49,2.78,1.89,5.01,4.21,6.62,1.43.99,3.01,1.66,4.68,2.13,2.92.81,5.85.85,8.78.11,2.9-.73,5.44-2.14,7.61-4.21,1.18-1.13,2.16-2.4,2.97-3.81,1.45-2.52,2.5-5.2,3.13-8.05.76-3.45.86-6.91.32-10.4-.51-3.26-1.55-6.34-3.13-9.23-1.52-2.79-3.46-5.25-5.82-7.39-1.14-1.04-2.37-1.97-3.67-2.8-.29-.18-.58-.36-.87-.54-.5-.3-.66-.93-.37-1.42.3-.49.92-.64,1.42-.34,3.42,2.03,6.34,4.63,8.73,7.81,2.28,3.03,3.93,6.38,4.96,10.03.94,3.32,1.3,6.71,1.08,10.16-.2,3.14-.87,6.18-2.03,9.12-.54,1.36-1.18,2.68-1.9,3.96-1.51,2.67-3.53,4.86-6.09,6.55-1.69,1.12-3.52,1.94-5.47,2.47-2.05.56-4.14.78-6.27.64-2.09-.13-4.11-.6-6.06-1.4-1.02-.42-2.01-.91-2.93-1.52-2.52-1.67-4.2-3.96-5.02-6.87-.75-2.64-.61-5.25.4-7.8.47-1.19,1.07-2.3,1.99-3.22,1.7-1.69,3.75-2.48,6.14-2.36,1.38.07,2.66.47,3.8,1.25,1.62,1.1,2.38,2.66,2.34,4.6-.02,1.05-.36,2.02-.99,2.86-.97,1.3-2.84,1.77-4.33,1.11-.78-.34-1.35-.88-1.59-1.7-.29-.97-.12-1.86.6-2.6.62-.63,1.67-.73,2.43-.27.46.28.63.85.4,1.32-.24.49-.78.71-1.3.51-.04-.01-.08-.03-.13-.05Z"/>
        </g>
        <g id="_4VDWEB-3" data-name="4VDWEB">
          <path class="cls-1" d="m48.49,9.01c-.33.01-.56.25-.57.57-.02.84.68,1.59,1.52,1.62,1.69.07,3.22-1.28,3.3-2.97.09-1.84-.58-3.39-1.94-4.62-1.21-1.1-2.66-1.57-4.29-1.49-2.32.11-4.4.89-6.17,2.41-2.15,1.84-3.35,4.18-3.55,7-.12,1.73.1,3.44.55,5.11.79,2.92,2.25,5.46,4.38,7.61,2.11,2.12,4.61,3.6,7.5,4.4,1.57.44,3.17.63,4.79.61,2.91-.04,5.75-.5,8.52-1.41,3.35-1.11,6.39-2.79,9.11-5.03,2.54-2.1,4.66-4.56,6.35-7.4,1.63-2.73,2.76-5.66,3.39-8.77.31-1.51.49-3.04.54-4.58.01-.34.02-.68.02-1.03,0-.58.46-1.04,1.03-1.04.57,0,1.02.46,1.02,1.05,0,3.98-.76,7.81-2.27,11.49-1.44,3.51-3.48,6.63-6.1,9.37-2.38,2.5-5.11,4.54-8.19,6.11-2.81,1.43-5.77,2.4-8.88,2.9-1.45.23-2.9.35-4.37.38-3.06.06-5.98-.56-8.73-1.9-1.82-.89-3.46-2.04-4.92-3.45-1.53-1.48-2.78-3.17-3.75-5.07-.95-1.87-1.58-3.84-1.88-5.92-.16-1.09-.24-2.19-.19-3.3.15-3.02,1.27-5.63,3.35-7.82,1.89-1.99,4.21-3.2,6.92-3.63,1.26-.2,2.53-.25,3.78.07,2.32.59,4.04,1.96,5.16,4.08.64,1.22.95,2.53.86,3.91-.12,1.95-1.07,3.4-2.77,4.36-.92.52-1.92.72-2.97.61-1.61-.17-2.97-1.54-3.16-3.15-.1-.84.06-1.61.65-2.24.69-.74,1.54-1.05,2.54-.8.86.22,1.48,1.07,1.47,1.95,0,.54-.41.97-.93,1.02-.55.04-1.01-.31-1.1-.86,0-.04-.02-.08-.03-.13Z"/>
        </g>
      </g>
      <g id="_4VDWEB-4" data-name="4VDWEB">
        <path class="cls-1" d="m45.66,77.15c.25.21.59.19.81-.04.58-.61.56-1.63-.04-2.22-1.21-1.18-3.25-1.21-4.44,0-1.3,1.3-1.84,2.91-1.66,4.73.16,1.63.92,2.95,2.18,3.98,1.8,1.48,3.86,2.29,6.19,2.35,2.82.08,5.29-.85,7.33-2.81,1.25-1.2,2.23-2.62,3.02-4.16,1.38-2.7,1.99-5.56,1.85-8.58-.14-2.99-1.01-5.76-2.61-8.3-.87-1.38-1.92-2.59-3.14-3.67-2.18-1.92-4.6-3.49-7.26-4.67-3.23-1.43-6.6-2.22-10.13-2.38-3.29-.15-6.52.26-9.67,1.23-3.04.94-5.84,2.35-8.4,4.23-1.24.91-2.4,1.93-3.47,3.04-.24.25-.47.49-.71.75-.4.43-1.04.46-1.46.08-.42-.39-.45-1.02-.05-1.46,2.67-2.95,5.8-5.29,9.39-7,3.42-1.63,7.03-2.58,10.81-2.86,3.44-.26,6.84.06,10.17.96,3.04.82,5.89,2.09,8.53,3.8,1.23.8,2.39,1.69,3.5,2.65,2.31,2.01,4.06,4.42,5.2,7.27.76,1.88,1.2,3.83,1.33,5.86.14,2.12-.06,4.22-.62,6.27-.55,2.03-1.41,3.91-2.58,5.66-.62.92-1.29,1.79-2.07,2.57-2.14,2.14-4.72,3.33-7.73,3.56-2.73.21-5.26-.45-7.57-1.94-1.07-.69-2.04-1.51-2.76-2.59-1.32-2-1.68-4.17-1.09-6.49.34-1.34.99-2.51,1.98-3.48,1.4-1.37,3.08-1.81,4.98-1.38,1.03.23,1.91.75,2.61,1.54,1.08,1.21,1.17,3.14.23,4.46-.49.69-1.13,1.15-1.98,1.22-1.01.09-1.85-.25-2.42-1.11-.49-.74-.38-1.79.22-2.43.37-.39.96-.45,1.37-.13.43.33.54.91.24,1.38-.02.04-.04.07-.07.12Z"/>
      </g>
    </g>
  </g>
</svg>